<?xml version="1.0" encoding="utf-8"?>
<!-- Generator: Adobe Illustrator 16.0.0, SVG Export Plug-In . SVG Version: 6.00 Build 0)  -->
<!DOCTYPE svg PUBLIC "-//W3C//DTD SVG 1.1//EN" "http://www.w3.org/Graphics/SVG/1.1/DTD/svg11.dtd">
<svg version="1.1" id="Layer_1" xmlns="http://www.w3.org/2000/svg" xmlns:xlink="http://www.w3.org/1999/xlink" x="0px" y="0px"
	 width="150px" height="400px" viewBox="0 0 150 400" enable-background="new 0 0 150 400" xml:space="preserve">
<path fill-rule="evenodd" clip-rule="evenodd" fill="#414042" d="M0,0v400h150V0H0z M35.173,257.143
	c-10.134,7.064-21.841,10.618-35.124,10.715H0v-26.136h0.148c5.755-0.192,10.97-1.49,15.644-3.844
	c5.066-2.643,9.051-6.246,12.002-10.906h30.548C53.178,239.896,45.456,249.985,35.173,257.143z M62.525,211.117
	c-0.049,1.345-0.098,2.306-0.098,2.979H0.247H0v-21.957h0.344h31.78c-2.412-7.927-6.494-13.933-12.249-18.113
	c-5.216-3.748-11.708-5.813-19.432-6.149H0v-25.512l0.59,0.048c9.641,0.288,18.742,2.595,27.204,6.967
	c9.149,4.66,16.922,11.29,23.366,19.746c3.886,5.141,6.789,10.858,8.658,17.2c1.87,6.342,2.853,13.596,2.853,21.812
	C62.672,208.763,62.623,209.771,62.525,211.117z"/>
</svg>
